<mxfile host="app.diagrams.net" modified="2023-11-29T09:53:15.232Z" agent="Mozilla/5.0 (Macintosh; Intel Mac OS X 10_15_7) AppleWebKit/605.1.15 (KHTML, like Gecko) Version/17.1 Safari/605.1.15" etag="97yH1vEBx8ty637DCBnW" version="22.1.4" type="github">
  <diagram id="C5RBs43oDa-KdzZeNtuy" name="Page-1">
    <mxGraphModel dx="2190" dy="924" grid="1" gridSize="10" guides="1" tooltips="1" connect="1" arrows="1" fold="1" page="1" pageScale="1" pageWidth="827" pageHeight="1169" math="0" shadow="0">
      <root>
        <mxCell id="WIyWlLk6GJQsqaUBKTNV-0" />
        <mxCell id="WIyWlLk6GJQsqaUBKTNV-1" parent="WIyWlLk6GJQsqaUBKTNV-0" />
        <mxCell id="WIyWlLk6GJQsqaUBKTNV-2" value="" style="rounded=0;html=1;jettySize=auto;orthogonalLoop=1;fontSize=11;endArrow=block;endFill=0;endSize=8;strokeWidth=1;shadow=0;labelBackgroundColor=none;edgeStyle=orthogonalEdgeStyle;exitX=1;exitY=0.5;exitDx=0;exitDy=0;" parent="WIyWlLk6GJQsqaUBKTNV-1" source="x8EZYoVtBb2SgE4D5zJI-0" target="WIyWlLk6GJQsqaUBKTNV-7" edge="1">
          <mxGeometry relative="1" as="geometry">
            <mxPoint x="-460" y="398" as="targetPoint" />
            <Array as="points">
              <mxPoint x="-400" y="337" />
            </Array>
          </mxGeometry>
        </mxCell>
        <mxCell id="WIyWlLk6GJQsqaUBKTNV-3" value="Choisir action" style="rounded=1;whiteSpace=wrap;html=1;fontSize=12;glass=0;strokeWidth=1;shadow=0;" parent="WIyWlLk6GJQsqaUBKTNV-1" vertex="1">
          <mxGeometry x="-570" y="250" width="80" height="30" as="geometry" />
        </mxCell>
        <mxCell id="WIyWlLk6GJQsqaUBKTNV-7" value="Acheter carte" style="rounded=1;whiteSpace=wrap;html=1;fontSize=12;glass=0;strokeWidth=1;shadow=0;" parent="WIyWlLk6GJQsqaUBKTNV-1" vertex="1">
          <mxGeometry x="-450" y="388" width="100" height="30" as="geometry" />
        </mxCell>
        <mxCell id="enHVpY441fStGtkDG_Y8-0" value="" style="ellipse;whiteSpace=wrap;html=1;aspect=fixed;fillColor=#000000;" parent="WIyWlLk6GJQsqaUBKTNV-1" vertex="1">
          <mxGeometry x="-790" y="170" width="30" height="30" as="geometry" />
        </mxCell>
        <mxCell id="enHVpY441fStGtkDG_Y8-1" value="" style="rounded=0;html=1;jettySize=auto;orthogonalLoop=1;fontSize=11;endArrow=block;endFill=0;endSize=8;strokeWidth=1;shadow=0;labelBackgroundColor=none;edgeStyle=orthogonalEdgeStyle;" parent="WIyWlLk6GJQsqaUBKTNV-1" source="enHVpY441fStGtkDG_Y8-0" target="Eacr9_k-0uvhscIPPzIO-74" edge="1">
          <mxGeometry relative="1" as="geometry">
            <mxPoint x="-560" y="295" as="sourcePoint" />
            <mxPoint x="-560" y="345" as="targetPoint" />
          </mxGeometry>
        </mxCell>
        <mxCell id="Eacr9_k-0uvhscIPPzIO-0" value="&lt;font style=&quot;font-size: 17px;&quot;&gt;&lt;b&gt;Joueur&lt;/b&gt;&lt;/font&gt;" style="text;html=1;strokeColor=none;fillColor=none;align=center;verticalAlign=middle;whiteSpace=wrap;rounded=0;" parent="WIyWlLk6GJQsqaUBKTNV-1" vertex="1">
          <mxGeometry x="-560" y="110" width="60" height="30" as="geometry" />
        </mxCell>
        <mxCell id="Eacr9_k-0uvhscIPPzIO-1" value="&lt;b&gt;&lt;font style=&quot;font-size: 17px;&quot;&gt;Système&lt;/font&gt;&lt;/b&gt;" style="text;html=1;strokeColor=none;fillColor=none;align=center;verticalAlign=middle;whiteSpace=wrap;rounded=0;" parent="WIyWlLk6GJQsqaUBKTNV-1" vertex="1">
          <mxGeometry x="48.74000000000001" y="110" width="60" height="30" as="geometry" />
        </mxCell>
        <mxCell id="Eacr9_k-0uvhscIPPzIO-2" value="" style="endArrow=none;html=1;rounded=0;strokeWidth=5;" parent="WIyWlLk6GJQsqaUBKTNV-1" edge="1">
          <mxGeometry width="50" height="50" relative="1" as="geometry">
            <mxPoint x="-280" y="1740" as="sourcePoint" />
            <mxPoint x="-280" y="80" as="targetPoint" />
          </mxGeometry>
        </mxCell>
        <mxCell id="x8EZYoVtBb2SgE4D5zJI-6" style="edgeStyle=orthogonalEdgeStyle;rounded=0;orthogonalLoop=1;jettySize=auto;html=1;exitX=0.5;exitY=1;exitDx=0;exitDy=0;entryX=0.5;entryY=0;entryDx=0;entryDy=0;endArrow=block;endFill=0;" edge="1" parent="WIyWlLk6GJQsqaUBKTNV-1" source="Eacr9_k-0uvhscIPPzIO-3" target="x8EZYoVtBb2SgE4D5zJI-5">
          <mxGeometry relative="1" as="geometry" />
        </mxCell>
        <mxCell id="Eacr9_k-0uvhscIPPzIO-3" value="Prendre jeton" style="rounded=1;whiteSpace=wrap;html=1;fontSize=12;glass=0;strokeWidth=1;shadow=0;" parent="WIyWlLk6GJQsqaUBKTNV-1" vertex="1">
          <mxGeometry x="-580" y="388" width="100" height="30" as="geometry" />
        </mxCell>
        <mxCell id="Eacr9_k-0uvhscIPPzIO-4" value="" style="rounded=0;html=1;jettySize=auto;orthogonalLoop=1;fontSize=11;endArrow=block;endFill=0;endSize=8;strokeWidth=1;shadow=0;labelBackgroundColor=none;edgeStyle=orthogonalEdgeStyle;" parent="WIyWlLk6GJQsqaUBKTNV-1" source="x8EZYoVtBb2SgE4D5zJI-0" target="Eacr9_k-0uvhscIPPzIO-3" edge="1">
          <mxGeometry relative="1" as="geometry">
            <mxPoint x="-450" y="353" as="sourcePoint" />
            <mxPoint x="-380" y="398" as="targetPoint" />
            <Array as="points">
              <mxPoint x="-530" y="348" />
            </Array>
          </mxGeometry>
        </mxCell>
        <mxCell id="Eacr9_k-0uvhscIPPzIO-5" value="Réserver carte" style="rounded=1;whiteSpace=wrap;html=1;fontSize=12;glass=0;strokeWidth=1;shadow=0;" parent="WIyWlLk6GJQsqaUBKTNV-1" vertex="1">
          <mxGeometry x="-730" y="500" width="100" height="30" as="geometry" />
        </mxCell>
        <mxCell id="Eacr9_k-0uvhscIPPzIO-6" value="" style="rounded=0;html=1;jettySize=auto;orthogonalLoop=1;fontSize=11;endArrow=block;endFill=0;endSize=8;strokeWidth=1;shadow=0;labelBackgroundColor=none;edgeStyle=orthogonalEdgeStyle;exitX=0;exitY=0.5;exitDx=0;exitDy=0;" parent="WIyWlLk6GJQsqaUBKTNV-1" source="x8EZYoVtBb2SgE4D5zJI-0" target="Eacr9_k-0uvhscIPPzIO-5" edge="1">
          <mxGeometry relative="1" as="geometry">
            <mxPoint x="-610" y="332" as="sourcePoint" />
            <mxPoint x="-520" y="398" as="targetPoint" />
            <Array as="points">
              <mxPoint x="-680" y="337" />
            </Array>
          </mxGeometry>
        </mxCell>
        <mxCell id="Eacr9_k-0uvhscIPPzIO-9" value="Sélectionner carte plateau" style="rounded=1;whiteSpace=wrap;html=1;fontSize=12;glass=0;strokeWidth=1;shadow=0;" parent="WIyWlLk6GJQsqaUBKTNV-1" vertex="1">
          <mxGeometry x="-388" y="516" width="100" height="40" as="geometry" />
        </mxCell>
        <mxCell id="Eacr9_k-0uvhscIPPzIO-10" value="" style="rounded=0;html=1;jettySize=auto;orthogonalLoop=1;fontSize=11;endArrow=block;endFill=0;endSize=8;strokeWidth=1;shadow=0;labelBackgroundColor=none;edgeStyle=orthogonalEdgeStyle;exitX=1;exitY=0.5;exitDx=0;exitDy=0;" parent="WIyWlLk6GJQsqaUBKTNV-1" source="x8EZYoVtBb2SgE4D5zJI-3" target="Eacr9_k-0uvhscIPPzIO-9" edge="1">
          <mxGeometry y="20" relative="1" as="geometry">
            <mxPoint as="offset" />
            <mxPoint x="-450" y="468" as="sourcePoint" />
            <mxPoint x="-337.9999999999998" y="467.9999999999998" as="targetPoint" />
          </mxGeometry>
        </mxCell>
        <mxCell id="Eacr9_k-0uvhscIPPzIO-11" value="Sélectionner carte réservée" style="rounded=1;whiteSpace=wrap;html=1;fontSize=12;glass=0;strokeWidth=1;shadow=0;" parent="WIyWlLk6GJQsqaUBKTNV-1" vertex="1">
          <mxGeometry x="-510" y="516" width="110" height="40" as="geometry" />
        </mxCell>
        <mxCell id="Eacr9_k-0uvhscIPPzIO-13" value="" style="rounded=0;html=1;jettySize=auto;orthogonalLoop=1;fontSize=11;endArrow=block;endFill=0;endSize=8;strokeWidth=1;shadow=0;labelBackgroundColor=none;edgeStyle=orthogonalEdgeStyle;exitX=0;exitY=0.5;exitDx=0;exitDy=0;" parent="WIyWlLk6GJQsqaUBKTNV-1" source="x8EZYoVtBb2SgE4D5zJI-3" target="Eacr9_k-0uvhscIPPzIO-11" edge="1">
          <mxGeometry y="20" relative="1" as="geometry">
            <mxPoint as="offset" />
            <mxPoint x="-422.9999999999998" y="491" as="sourcePoint" />
            <mxPoint x="-448" y="656" as="targetPoint" />
            <Array as="points">
              <mxPoint x="-455" y="465" />
            </Array>
          </mxGeometry>
        </mxCell>
        <mxCell id="Eacr9_k-0uvhscIPPzIO-14" value="vérifier ressources joueur" style="rounded=1;whiteSpace=wrap;html=1;fontSize=12;glass=0;strokeWidth=1;shadow=0;" parent="WIyWlLk6GJQsqaUBKTNV-1" vertex="1">
          <mxGeometry x="15" y="556" width="110" height="40" as="geometry" />
        </mxCell>
        <mxCell id="Eacr9_k-0uvhscIPPzIO-15" value="" style="rounded=0;html=1;jettySize=auto;orthogonalLoop=1;fontSize=11;endArrow=block;endFill=0;endSize=8;strokeWidth=1;shadow=0;labelBackgroundColor=none;edgeStyle=orthogonalEdgeStyle;" parent="WIyWlLk6GJQsqaUBKTNV-1" source="Eacr9_k-0uvhscIPPzIO-11" target="Eacr9_k-0uvhscIPPzIO-14" edge="1">
          <mxGeometry y="20" relative="1" as="geometry">
            <mxPoint as="offset" />
            <mxPoint x="-390" y="476" as="sourcePoint" />
            <mxPoint x="-445" y="526" as="targetPoint" />
            <Array as="points">
              <mxPoint x="-455" y="576" />
            </Array>
          </mxGeometry>
        </mxCell>
        <mxCell id="Eacr9_k-0uvhscIPPzIO-16" value="" style="rounded=0;html=1;jettySize=auto;orthogonalLoop=1;fontSize=11;endArrow=block;endFill=0;endSize=8;strokeWidth=1;shadow=0;labelBackgroundColor=none;edgeStyle=orthogonalEdgeStyle;" parent="WIyWlLk6GJQsqaUBKTNV-1" source="Eacr9_k-0uvhscIPPzIO-9" target="Eacr9_k-0uvhscIPPzIO-14" edge="1">
          <mxGeometry y="20" relative="1" as="geometry">
            <mxPoint as="offset" />
            <mxPoint x="-445" y="566" as="sourcePoint" />
            <mxPoint x="-210" y="586" as="targetPoint" />
            <Array as="points">
              <mxPoint x="-334" y="576" />
            </Array>
          </mxGeometry>
        </mxCell>
        <mxCell id="Eacr9_k-0uvhscIPPzIO-21" style="edgeStyle=orthogonalEdgeStyle;rounded=0;orthogonalLoop=1;jettySize=auto;html=1;exitX=1;exitY=0.5;exitDx=0;exitDy=0;endArrow=block;endFill=0;" parent="WIyWlLk6GJQsqaUBKTNV-1" source="Eacr9_k-0uvhscIPPzIO-18" target="Eacr9_k-0uvhscIPPzIO-74" edge="1">
          <mxGeometry relative="1" as="geometry">
            <Array as="points">
              <mxPoint x="150" y="656" />
              <mxPoint x="150" y="305" />
              <mxPoint x="-330" y="305" />
              <mxPoint x="-330" y="185" />
            </Array>
          </mxGeometry>
        </mxCell>
        <mxCell id="Eacr9_k-0uvhscIPPzIO-22" value="ressources insufisantes" style="edgeLabel;html=1;align=center;verticalAlign=middle;resizable=0;points=[];" parent="Eacr9_k-0uvhscIPPzIO-21" vertex="1" connectable="0">
          <mxGeometry x="-0.9382" y="3" relative="1" as="geometry">
            <mxPoint x="35" y="13" as="offset" />
          </mxGeometry>
        </mxCell>
        <mxCell id="Eacr9_k-0uvhscIPPzIO-23" value="ressources suffisantes" style="edgeStyle=orthogonalEdgeStyle;rounded=0;orthogonalLoop=1;jettySize=auto;html=1;exitX=0.5;exitY=1;exitDx=0;exitDy=0;endArrow=block;endFill=0;" parent="WIyWlLk6GJQsqaUBKTNV-1" source="Eacr9_k-0uvhscIPPzIO-18" target="Eacr9_k-0uvhscIPPzIO-24" edge="1">
          <mxGeometry x="-0.04" y="60" relative="1" as="geometry">
            <mxPoint x="70" y="736" as="targetPoint" />
            <mxPoint as="offset" />
          </mxGeometry>
        </mxCell>
        <mxCell id="Eacr9_k-0uvhscIPPzIO-18" value="" style="rhombus;whiteSpace=wrap;html=1;shadow=0;fontFamily=Helvetica;fontSize=12;align=center;strokeWidth=1;spacing=6;spacingTop=-4;" parent="WIyWlLk6GJQsqaUBKTNV-1" vertex="1">
          <mxGeometry x="33.75" y="626" width="72.5" height="60" as="geometry" />
        </mxCell>
        <mxCell id="Eacr9_k-0uvhscIPPzIO-19" value="" style="edgeStyle=orthogonalEdgeStyle;rounded=0;html=1;jettySize=auto;orthogonalLoop=1;fontSize=11;endArrow=block;endFill=0;endSize=8;strokeWidth=1;shadow=0;labelBackgroundColor=none;" parent="WIyWlLk6GJQsqaUBKTNV-1" source="Eacr9_k-0uvhscIPPzIO-14" target="Eacr9_k-0uvhscIPPzIO-18" edge="1">
          <mxGeometry y="10" relative="1" as="geometry">
            <mxPoint as="offset" />
            <mxPoint x="-155" y="706" as="sourcePoint" />
            <mxPoint x="-105" y="706" as="targetPoint" />
          </mxGeometry>
        </mxCell>
        <mxCell id="Eacr9_k-0uvhscIPPzIO-24" value="ajouter carte main joueur" style="rounded=1;whiteSpace=wrap;html=1;fontSize=12;glass=0;strokeWidth=1;shadow=0;" parent="WIyWlLk6GJQsqaUBKTNV-1" vertex="1">
          <mxGeometry x="10" y="736" width="120" height="40" as="geometry" />
        </mxCell>
        <mxCell id="Eacr9_k-0uvhscIPPzIO-25" value="" style="rounded=0;html=1;jettySize=auto;orthogonalLoop=1;fontSize=11;endArrow=block;endFill=0;endSize=8;strokeWidth=1;shadow=0;labelBackgroundColor=none;edgeStyle=orthogonalEdgeStyle;" parent="WIyWlLk6GJQsqaUBKTNV-1" source="Eacr9_k-0uvhscIPPzIO-24" target="Eacr9_k-0uvhscIPPzIO-26" edge="1">
          <mxGeometry x="0.3333" y="20" relative="1" as="geometry">
            <mxPoint as="offset" />
            <mxPoint x="45" y="796" as="sourcePoint" />
            <mxPoint x="75" y="876" as="targetPoint" />
          </mxGeometry>
        </mxCell>
        <mxCell id="Eacr9_k-0uvhscIPPzIO-26" value="vérifier possession noble" style="rounded=1;whiteSpace=wrap;html=1;fontSize=12;glass=0;strokeWidth=1;shadow=0;" parent="WIyWlLk6GJQsqaUBKTNV-1" vertex="1">
          <mxGeometry x="10" y="836" width="120" height="40" as="geometry" />
        </mxCell>
        <mxCell id="Eacr9_k-0uvhscIPPzIO-31" value="Oui" style="edgeStyle=orthogonalEdgeStyle;rounded=0;orthogonalLoop=1;jettySize=auto;html=1;exitX=1;exitY=0.5;exitDx=0;exitDy=0;endArrow=block;endFill=0;" parent="WIyWlLk6GJQsqaUBKTNV-1" source="Eacr9_k-0uvhscIPPzIO-27" target="Eacr9_k-0uvhscIPPzIO-40" edge="1">
          <mxGeometry x="-0.5939" y="20" relative="1" as="geometry">
            <mxPoint x="265" y="1206" as="targetPoint" />
            <Array as="points">
              <mxPoint x="225" y="941" />
              <mxPoint x="225" y="1316" />
            </Array>
            <mxPoint y="-1" as="offset" />
          </mxGeometry>
        </mxCell>
        <mxCell id="Eacr9_k-0uvhscIPPzIO-32" value="Non" style="edgeStyle=orthogonalEdgeStyle;rounded=0;orthogonalLoop=1;jettySize=auto;html=1;exitX=0.5;exitY=1;exitDx=0;exitDy=0;" parent="WIyWlLk6GJQsqaUBKTNV-1" source="Eacr9_k-0uvhscIPPzIO-27" target="Eacr9_k-0uvhscIPPzIO-33" edge="1">
          <mxGeometry relative="1" as="geometry">
            <mxPoint x="70" y="1016" as="targetPoint" />
          </mxGeometry>
        </mxCell>
        <mxCell id="Eacr9_k-0uvhscIPPzIO-27" value="" style="rhombus;whiteSpace=wrap;html=1;shadow=0;fontFamily=Helvetica;fontSize=12;align=center;strokeWidth=1;spacing=6;spacingTop=-4;" parent="WIyWlLk6GJQsqaUBKTNV-1" vertex="1">
          <mxGeometry x="36.870000000000005" y="911" width="66.25" height="60" as="geometry" />
        </mxCell>
        <mxCell id="Eacr9_k-0uvhscIPPzIO-28" value="" style="rounded=0;html=1;jettySize=auto;orthogonalLoop=1;fontSize=11;endArrow=block;endFill=0;endSize=8;strokeWidth=1;shadow=0;labelBackgroundColor=none;edgeStyle=orthogonalEdgeStyle;" parent="WIyWlLk6GJQsqaUBKTNV-1" source="Eacr9_k-0uvhscIPPzIO-26" target="Eacr9_k-0uvhscIPPzIO-27" edge="1">
          <mxGeometry x="0.3333" y="20" relative="1" as="geometry">
            <mxPoint as="offset" />
            <mxPoint x="80" y="786" as="sourcePoint" />
            <mxPoint x="80" y="846" as="targetPoint" />
          </mxGeometry>
        </mxCell>
        <mxCell id="Eacr9_k-0uvhscIPPzIO-33" value="vérifier ressources pour noble" style="rounded=1;whiteSpace=wrap;html=1;fontSize=12;glass=0;strokeWidth=1;shadow=0;" parent="WIyWlLk6GJQsqaUBKTNV-1" vertex="1">
          <mxGeometry x="9.990000000000009" y="1036" width="120" height="40" as="geometry" />
        </mxCell>
        <mxCell id="Eacr9_k-0uvhscIPPzIO-36" value="Oui" style="edgeStyle=orthogonalEdgeStyle;rounded=0;orthogonalLoop=1;jettySize=auto;html=1;exitX=0.5;exitY=1;exitDx=0;exitDy=0;endArrow=block;endFill=0;" parent="WIyWlLk6GJQsqaUBKTNV-1" source="Eacr9_k-0uvhscIPPzIO-34" target="Eacr9_k-0uvhscIPPzIO-38" edge="1">
          <mxGeometry relative="1" as="geometry">
            <mxPoint x="70" y="1216" as="targetPoint" />
          </mxGeometry>
        </mxCell>
        <mxCell id="Eacr9_k-0uvhscIPPzIO-37" value="Non" style="edgeStyle=orthogonalEdgeStyle;rounded=0;orthogonalLoop=1;jettySize=auto;html=1;exitX=1;exitY=0.5;exitDx=0;exitDy=0;endArrow=block;endFill=0;" parent="WIyWlLk6GJQsqaUBKTNV-1" source="Eacr9_k-0uvhscIPPzIO-34" target="Eacr9_k-0uvhscIPPzIO-40" edge="1">
          <mxGeometry x="-0.6467" y="10" relative="1" as="geometry">
            <mxPoint x="225" y="1146" as="targetPoint" />
            <Array as="points">
              <mxPoint x="225" y="1146" />
              <mxPoint x="225" y="1316" />
            </Array>
            <mxPoint as="offset" />
          </mxGeometry>
        </mxCell>
        <mxCell id="Eacr9_k-0uvhscIPPzIO-34" value="" style="rhombus;whiteSpace=wrap;html=1;shadow=0;fontFamily=Helvetica;fontSize=12;align=center;strokeWidth=1;spacing=6;spacingTop=-4;" parent="WIyWlLk6GJQsqaUBKTNV-1" vertex="1">
          <mxGeometry x="36.870000000000005" y="1116" width="66.25" height="60" as="geometry" />
        </mxCell>
        <mxCell id="Eacr9_k-0uvhscIPPzIO-35" value="" style="rounded=0;html=1;jettySize=auto;orthogonalLoop=1;fontSize=11;endArrow=block;endFill=0;endSize=8;strokeWidth=1;shadow=0;labelBackgroundColor=none;edgeStyle=orthogonalEdgeStyle;" parent="WIyWlLk6GJQsqaUBKTNV-1" source="Eacr9_k-0uvhscIPPzIO-33" target="Eacr9_k-0uvhscIPPzIO-34" edge="1">
          <mxGeometry x="0.3333" y="20" relative="1" as="geometry">
            <mxPoint as="offset" />
            <mxPoint x="80" y="886" as="sourcePoint" />
            <mxPoint x="80" y="921" as="targetPoint" />
          </mxGeometry>
        </mxCell>
        <mxCell id="Eacr9_k-0uvhscIPPzIO-38" value="ajouter noble au joueur" style="rounded=1;whiteSpace=wrap;html=1;fontSize=12;glass=0;strokeWidth=1;shadow=0;" parent="WIyWlLk6GJQsqaUBKTNV-1" vertex="1">
          <mxGeometry x="9.990000000000009" y="1226" width="120" height="40" as="geometry" />
        </mxCell>
        <mxCell id="Eacr9_k-0uvhscIPPzIO-39" value="" style="edgeStyle=orthogonalEdgeStyle;rounded=0;orthogonalLoop=1;jettySize=auto;html=1;endArrow=block;endFill=0;" parent="WIyWlLk6GJQsqaUBKTNV-1" source="Eacr9_k-0uvhscIPPzIO-38" target="Eacr9_k-0uvhscIPPzIO-40" edge="1">
          <mxGeometry relative="1" as="geometry">
            <mxPoint x="70" y="1326" as="targetPoint" />
            <mxPoint x="80" y="1186" as="sourcePoint" />
          </mxGeometry>
        </mxCell>
        <mxCell id="Eacr9_k-0uvhscIPPzIO-40" value="vérifier si cas victoire" style="rounded=1;whiteSpace=wrap;html=1;fontSize=12;glass=0;strokeWidth=1;shadow=0;" parent="WIyWlLk6GJQsqaUBKTNV-1" vertex="1">
          <mxGeometry x="10" y="1296" width="120" height="40" as="geometry" />
        </mxCell>
        <mxCell id="Eacr9_k-0uvhscIPPzIO-43" style="edgeStyle=orthogonalEdgeStyle;rounded=0;orthogonalLoop=1;jettySize=auto;html=1;exitX=1;exitY=0.5;exitDx=0;exitDy=0;endArrow=block;endFill=0;" parent="WIyWlLk6GJQsqaUBKTNV-1" source="Eacr9_k-0uvhscIPPzIO-41" target="Eacr9_k-0uvhscIPPzIO-74" edge="1">
          <mxGeometry relative="1" as="geometry">
            <mxPoint x="-350" y="866" as="targetPoint" />
            <Array as="points">
              <mxPoint x="290" y="1396" />
              <mxPoint x="290" y="305" />
              <mxPoint x="-410" y="305" />
              <mxPoint x="-410" y="185" />
            </Array>
          </mxGeometry>
        </mxCell>
        <mxCell id="Eacr9_k-0uvhscIPPzIO-50" value="pts &amp;lt; 15" style="edgeLabel;html=1;align=center;verticalAlign=middle;resizable=0;points=[];" parent="Eacr9_k-0uvhscIPPzIO-43" vertex="1" connectable="0">
          <mxGeometry x="-0.2263" y="-2" relative="1" as="geometry">
            <mxPoint x="38" y="428" as="offset" />
          </mxGeometry>
        </mxCell>
        <mxCell id="Eacr9_k-0uvhscIPPzIO-44" value="pts &amp;gt;= 15" style="edgeStyle=orthogonalEdgeStyle;rounded=0;orthogonalLoop=1;jettySize=auto;html=1;exitX=0.5;exitY=1;exitDx=0;exitDy=0;endArrow=block;endFill=0;" parent="WIyWlLk6GJQsqaUBKTNV-1" source="Eacr9_k-0uvhscIPPzIO-41" target="Eacr9_k-0uvhscIPPzIO-45" edge="1">
          <mxGeometry y="25" relative="1" as="geometry">
            <mxPoint x="70" y="1486" as="targetPoint" />
            <mxPoint as="offset" />
          </mxGeometry>
        </mxCell>
        <mxCell id="Eacr9_k-0uvhscIPPzIO-41" value="" style="rhombus;whiteSpace=wrap;html=1;shadow=0;fontFamily=Helvetica;fontSize=12;align=center;strokeWidth=1;spacing=6;spacingTop=-4;" parent="WIyWlLk6GJQsqaUBKTNV-1" vertex="1">
          <mxGeometry x="36.870000000000005" y="1366" width="66.25" height="60" as="geometry" />
        </mxCell>
        <mxCell id="Eacr9_k-0uvhscIPPzIO-42" value="" style="edgeStyle=orthogonalEdgeStyle;rounded=0;orthogonalLoop=1;jettySize=auto;html=1;endArrow=block;endFill=0;" parent="WIyWlLk6GJQsqaUBKTNV-1" source="Eacr9_k-0uvhscIPPzIO-40" target="Eacr9_k-0uvhscIPPzIO-41" edge="1">
          <mxGeometry relative="1" as="geometry">
            <mxPoint x="80" y="1326" as="targetPoint" />
            <mxPoint x="80" y="1276" as="sourcePoint" />
          </mxGeometry>
        </mxCell>
        <mxCell id="Eacr9_k-0uvhscIPPzIO-45" value="Finir partie, annoncer gagnant" style="rounded=1;whiteSpace=wrap;html=1;fontSize=12;glass=0;strokeWidth=1;shadow=0;" parent="WIyWlLk6GJQsqaUBKTNV-1" vertex="1">
          <mxGeometry x="9.990000000000009" y="1466" width="120" height="40" as="geometry" />
        </mxCell>
        <mxCell id="Eacr9_k-0uvhscIPPzIO-51" value="" style="edgeStyle=orthogonalEdgeStyle;rounded=0;orthogonalLoop=1;jettySize=auto;html=1;endArrow=block;endFill=0;" parent="WIyWlLk6GJQsqaUBKTNV-1" source="Eacr9_k-0uvhscIPPzIO-45" target="Eacr9_k-0uvhscIPPzIO-48" edge="1">
          <mxGeometry relative="1" as="geometry">
            <mxPoint x="80" y="1376" as="targetPoint" />
            <mxPoint x="80" y="1346" as="sourcePoint" />
          </mxGeometry>
        </mxCell>
        <mxCell id="Eacr9_k-0uvhscIPPzIO-52" value="" style="rounded=0;html=1;jettySize=auto;orthogonalLoop=1;fontSize=11;endArrow=block;endFill=0;endSize=8;strokeWidth=1;shadow=0;labelBackgroundColor=none;edgeStyle=orthogonalEdgeStyle;exitX=0;exitY=0.5;exitDx=0;exitDy=0;" parent="WIyWlLk6GJQsqaUBKTNV-1" source="x8EZYoVtBb2SgE4D5zJI-5" target="Eacr9_k-0uvhscIPPzIO-53" edge="1">
          <mxGeometry y="20" relative="1" as="geometry">
            <mxPoint as="offset" />
            <mxPoint x="-650" y="630" as="sourcePoint" />
            <mxPoint x="-150" y="496" as="targetPoint" />
            <Array as="points">
              <mxPoint x="-590" y="465" />
            </Array>
          </mxGeometry>
        </mxCell>
        <mxCell id="Eacr9_k-0uvhscIPPzIO-53" value="Sélectionner 2 identiques" style="rounded=1;whiteSpace=wrap;html=1;fontSize=12;glass=0;strokeWidth=1;shadow=0;" parent="WIyWlLk6GJQsqaUBKTNV-1" vertex="1">
          <mxGeometry x="-643" y="666" width="110" height="40" as="geometry" />
        </mxCell>
        <mxCell id="Eacr9_k-0uvhscIPPzIO-54" value="Sélectionner 3 différents" style="rounded=1;whiteSpace=wrap;html=1;fontSize=12;glass=0;strokeWidth=1;shadow=0;" parent="WIyWlLk6GJQsqaUBKTNV-1" vertex="1">
          <mxGeometry x="-527" y="666" width="110" height="40" as="geometry" />
        </mxCell>
        <mxCell id="Eacr9_k-0uvhscIPPzIO-55" value="" style="rounded=0;html=1;jettySize=auto;orthogonalLoop=1;fontSize=11;endArrow=block;endFill=0;endSize=8;strokeWidth=1;shadow=0;labelBackgroundColor=none;edgeStyle=orthogonalEdgeStyle;exitX=0.5;exitY=1;exitDx=0;exitDy=0;" parent="WIyWlLk6GJQsqaUBKTNV-1" source="x8EZYoVtBb2SgE4D5zJI-5" target="Eacr9_k-0uvhscIPPzIO-54" edge="1">
          <mxGeometry y="20" relative="1" as="geometry">
            <mxPoint as="offset" />
            <mxPoint x="-520" y="630" as="sourcePoint" />
            <mxPoint x="-580" y="646" as="targetPoint" />
            <Array as="points">
              <mxPoint x="-530" y="630" />
              <mxPoint x="-480" y="630" />
            </Array>
          </mxGeometry>
        </mxCell>
        <mxCell id="Eacr9_k-0uvhscIPPzIO-56" value="vérifier &lt;br&gt;nb jetons &amp;gt; 10" style="rounded=1;whiteSpace=wrap;html=1;fontSize=12;glass=0;strokeWidth=1;shadow=0;" parent="WIyWlLk6GJQsqaUBKTNV-1" vertex="1">
          <mxGeometry x="-200" y="870" width="100" height="40" as="geometry" />
        </mxCell>
        <mxCell id="Eacr9_k-0uvhscIPPzIO-57" value="" style="rounded=0;html=1;jettySize=auto;orthogonalLoop=1;fontSize=11;endArrow=block;endFill=0;endSize=8;strokeWidth=1;shadow=0;labelBackgroundColor=none;edgeStyle=orthogonalEdgeStyle;" parent="WIyWlLk6GJQsqaUBKTNV-1" source="Eacr9_k-0uvhscIPPzIO-54" target="Eacr9_k-0uvhscIPPzIO-69" edge="1">
          <mxGeometry y="20" relative="1" as="geometry">
            <mxPoint as="offset" />
            <mxPoint x="-510" y="476" as="sourcePoint" />
            <mxPoint x="-220" y="746" as="targetPoint" />
            <Array as="points">
              <mxPoint x="-470" y="746" />
            </Array>
          </mxGeometry>
        </mxCell>
        <mxCell id="Eacr9_k-0uvhscIPPzIO-58" value="" style="rounded=0;html=1;jettySize=auto;orthogonalLoop=1;fontSize=11;endArrow=block;endFill=0;endSize=8;strokeWidth=1;shadow=0;labelBackgroundColor=none;edgeStyle=orthogonalEdgeStyle;" parent="WIyWlLk6GJQsqaUBKTNV-1" source="Eacr9_k-0uvhscIPPzIO-53" target="Eacr9_k-0uvhscIPPzIO-69" edge="1">
          <mxGeometry y="20" relative="1" as="geometry">
            <mxPoint as="offset" />
            <mxPoint x="-460" y="716" as="sourcePoint" />
            <mxPoint x="-210" y="746" as="targetPoint" />
            <Array as="points">
              <mxPoint x="-588" y="746" />
            </Array>
          </mxGeometry>
        </mxCell>
        <mxCell id="Eacr9_k-0uvhscIPPzIO-62" value="non" style="edgeStyle=orthogonalEdgeStyle;rounded=0;orthogonalLoop=1;jettySize=auto;html=1;exitX=0.5;exitY=1;exitDx=0;exitDy=0;entryX=0.25;entryY=1;entryDx=0;entryDy=0;endArrow=block;endFill=0;" parent="WIyWlLk6GJQsqaUBKTNV-1" source="Eacr9_k-0uvhscIPPzIO-59" target="Eacr9_k-0uvhscIPPzIO-74" edge="1">
          <mxGeometry x="-0.9211" y="-10" relative="1" as="geometry">
            <mxPoint x="-760" y="400" as="targetPoint" />
            <Array as="points">
              <mxPoint x="-150" y="1020" />
              <mxPoint x="-750" y="1020" />
              <mxPoint x="-750" y="220" />
              <mxPoint x="-550" y="220" />
            </Array>
            <mxPoint as="offset" />
          </mxGeometry>
        </mxCell>
        <mxCell id="Eacr9_k-0uvhscIPPzIO-71" style="edgeStyle=orthogonalEdgeStyle;rounded=0;orthogonalLoop=1;jettySize=auto;html=1;exitX=1;exitY=0.5;exitDx=0;exitDy=0;endArrow=block;endFill=0;" parent="WIyWlLk6GJQsqaUBKTNV-1" source="Eacr9_k-0uvhscIPPzIO-59" target="Eacr9_k-0uvhscIPPzIO-72" edge="1">
          <mxGeometry relative="1" as="geometry">
            <mxPoint x="-70" y="996" as="targetPoint" />
          </mxGeometry>
        </mxCell>
        <mxCell id="Eacr9_k-0uvhscIPPzIO-59" value="" style="rhombus;whiteSpace=wrap;html=1;shadow=0;fontFamily=Helvetica;fontSize=12;align=center;strokeWidth=1;spacing=6;spacingTop=-4;" parent="WIyWlLk6GJQsqaUBKTNV-1" vertex="1">
          <mxGeometry x="-178.13" y="950" width="56.25" height="50" as="geometry" />
        </mxCell>
        <mxCell id="Eacr9_k-0uvhscIPPzIO-60" value="" style="edgeStyle=orthogonalEdgeStyle;rounded=0;html=1;jettySize=auto;orthogonalLoop=1;fontSize=11;endArrow=block;endFill=0;endSize=8;strokeWidth=1;shadow=0;labelBackgroundColor=none;" parent="WIyWlLk6GJQsqaUBKTNV-1" source="Eacr9_k-0uvhscIPPzIO-56" target="Eacr9_k-0uvhscIPPzIO-59" edge="1">
          <mxGeometry y="10" relative="1" as="geometry">
            <mxPoint as="offset" />
            <mxPoint x="-150.01" y="920" as="sourcePoint" />
            <mxPoint x="-325.01" y="1030" as="targetPoint" />
          </mxGeometry>
        </mxCell>
        <mxCell id="Eacr9_k-0uvhscIPPzIO-63" value="" style="edgeStyle=orthogonalEdgeStyle;rounded=0;html=1;jettySize=auto;orthogonalLoop=1;fontSize=11;endArrow=block;endFill=0;endSize=8;strokeWidth=1;shadow=0;labelBackgroundColor=none;" parent="WIyWlLk6GJQsqaUBKTNV-1" source="Eacr9_k-0uvhscIPPzIO-72" target="Eacr9_k-0uvhscIPPzIO-56" edge="1">
          <mxGeometry y="10" relative="1" as="geometry">
            <mxPoint as="offset" />
            <mxPoint x="-140" y="1025" as="sourcePoint" />
            <mxPoint x="-510" y="975" as="targetPoint" />
            <Array as="points">
              <mxPoint x="-51" y="890" />
            </Array>
          </mxGeometry>
        </mxCell>
        <mxCell id="Eacr9_k-0uvhscIPPzIO-66" value="" style="rounded=0;html=1;jettySize=auto;orthogonalLoop=1;fontSize=11;endArrow=block;endFill=0;endSize=8;strokeWidth=1;shadow=0;labelBackgroundColor=none;edgeStyle=orthogonalEdgeStyle;entryX=0.5;entryY=0;entryDx=0;entryDy=0;" parent="WIyWlLk6GJQsqaUBKTNV-1" source="Eacr9_k-0uvhscIPPzIO-5" target="Eacr9_k-0uvhscIPPzIO-67" edge="1">
          <mxGeometry y="20" relative="1" as="geometry">
            <mxPoint as="offset" />
            <mxPoint x="-390" y="476" as="sourcePoint" />
            <mxPoint x="-210" y="626" as="targetPoint" />
            <Array as="points">
              <mxPoint x="-680" y="596" />
              <mxPoint x="-150" y="596" />
            </Array>
          </mxGeometry>
        </mxCell>
        <mxCell id="Eacr9_k-0uvhscIPPzIO-67" value="+1 jeton doré&lt;br&gt;et placer carte joueur" style="rounded=1;whiteSpace=wrap;html=1;fontSize=12;glass=0;strokeWidth=1;shadow=0;" parent="WIyWlLk6GJQsqaUBKTNV-1" vertex="1">
          <mxGeometry x="-195" y="626" width="90" height="50" as="geometry" />
        </mxCell>
        <mxCell id="Eacr9_k-0uvhscIPPzIO-69" value="donner jeton joueur" style="rounded=1;whiteSpace=wrap;html=1;fontSize=12;glass=0;strokeWidth=1;shadow=0;" parent="WIyWlLk6GJQsqaUBKTNV-1" vertex="1">
          <mxGeometry x="-270" y="796" width="100" height="40" as="geometry" />
        </mxCell>
        <mxCell id="Eacr9_k-0uvhscIPPzIO-70" value="" style="rounded=0;html=1;jettySize=auto;orthogonalLoop=1;fontSize=11;endArrow=block;endFill=0;endSize=8;strokeWidth=1;shadow=0;labelBackgroundColor=none;edgeStyle=orthogonalEdgeStyle;entryX=0;entryY=0.5;entryDx=0;entryDy=0;" parent="WIyWlLk6GJQsqaUBKTNV-1" source="Eacr9_k-0uvhscIPPzIO-69" target="Eacr9_k-0uvhscIPPzIO-56" edge="1">
          <mxGeometry y="20" relative="1" as="geometry">
            <mxPoint as="offset" />
            <mxPoint x="-578" y="716" as="sourcePoint" />
            <mxPoint x="-150" y="870" as="targetPoint" />
            <Array as="points" />
          </mxGeometry>
        </mxCell>
        <mxCell id="Eacr9_k-0uvhscIPPzIO-72" value="Défausser les jetons" style="rounded=1;whiteSpace=wrap;html=1;fontSize=12;glass=0;strokeWidth=1;shadow=0;" parent="WIyWlLk6GJQsqaUBKTNV-1" vertex="1">
          <mxGeometry x="-96" y="955" width="90" height="40" as="geometry" />
        </mxCell>
        <mxCell id="Eacr9_k-0uvhscIPPzIO-73" value="" style="rounded=0;html=1;jettySize=auto;orthogonalLoop=1;fontSize=11;endArrow=block;endFill=0;endSize=8;strokeWidth=1;shadow=0;labelBackgroundColor=none;edgeStyle=orthogonalEdgeStyle;entryX=0.5;entryY=0;entryDx=0;entryDy=0;" parent="WIyWlLk6GJQsqaUBKTNV-1" source="Eacr9_k-0uvhscIPPzIO-67" target="Eacr9_k-0uvhscIPPzIO-56" edge="1">
          <mxGeometry y="20" relative="1" as="geometry">
            <mxPoint as="offset" />
            <mxPoint x="-140" y="776" as="sourcePoint" />
            <mxPoint x="-140" y="880" as="targetPoint" />
            <Array as="points">
              <mxPoint x="-150" y="671" />
            </Array>
          </mxGeometry>
        </mxCell>
        <mxCell id="Eacr9_k-0uvhscIPPzIO-74" value="Début tour" style="rounded=1;whiteSpace=wrap;html=1;fontSize=12;glass=0;strokeWidth=1;shadow=0;" parent="WIyWlLk6GJQsqaUBKTNV-1" vertex="1">
          <mxGeometry x="-570" y="170" width="80" height="30" as="geometry" />
        </mxCell>
        <mxCell id="Eacr9_k-0uvhscIPPzIO-75" value="" style="rounded=0;html=1;jettySize=auto;orthogonalLoop=1;fontSize=11;endArrow=block;endFill=0;endSize=8;strokeWidth=1;shadow=0;labelBackgroundColor=none;edgeStyle=orthogonalEdgeStyle;" parent="WIyWlLk6GJQsqaUBKTNV-1" source="Eacr9_k-0uvhscIPPzIO-74" target="WIyWlLk6GJQsqaUBKTNV-3" edge="1">
          <mxGeometry relative="1" as="geometry">
            <mxPoint x="-520" y="276" as="sourcePoint" />
            <mxPoint x="-670" y="440" as="targetPoint" />
            <Array as="points" />
          </mxGeometry>
        </mxCell>
        <mxCell id="x8EZYoVtBb2SgE4D5zJI-0" value="" style="rhombus;whiteSpace=wrap;html=1;" vertex="1" parent="WIyWlLk6GJQsqaUBKTNV-1">
          <mxGeometry x="-555" y="312" width="50" height="50" as="geometry" />
        </mxCell>
        <mxCell id="x8EZYoVtBb2SgE4D5zJI-2" style="edgeStyle=orthogonalEdgeStyle;rounded=0;orthogonalLoop=1;jettySize=auto;html=1;exitX=0.5;exitY=1;exitDx=0;exitDy=0;entryX=0.504;entryY=-0.048;entryDx=0;entryDy=0;entryPerimeter=0;endArrow=block;endFill=0;" edge="1" parent="WIyWlLk6GJQsqaUBKTNV-1" source="WIyWlLk6GJQsqaUBKTNV-3" target="x8EZYoVtBb2SgE4D5zJI-0">
          <mxGeometry relative="1" as="geometry" />
        </mxCell>
        <mxCell id="x8EZYoVtBb2SgE4D5zJI-3" value="" style="rhombus;whiteSpace=wrap;html=1;" vertex="1" parent="WIyWlLk6GJQsqaUBKTNV-1">
          <mxGeometry x="-425" y="440" width="50" height="50" as="geometry" />
        </mxCell>
        <mxCell id="x8EZYoVtBb2SgE4D5zJI-4" style="edgeStyle=orthogonalEdgeStyle;rounded=0;orthogonalLoop=1;jettySize=auto;html=1;exitX=0.5;exitY=1;exitDx=0;exitDy=0;entryX=0.5;entryY=0;entryDx=0;entryDy=0;endArrow=block;endFill=0;" edge="1" parent="WIyWlLk6GJQsqaUBKTNV-1" source="WIyWlLk6GJQsqaUBKTNV-7" target="x8EZYoVtBb2SgE4D5zJI-3">
          <mxGeometry relative="1" as="geometry" />
        </mxCell>
        <mxCell id="x8EZYoVtBb2SgE4D5zJI-5" value="" style="rhombus;whiteSpace=wrap;html=1;" vertex="1" parent="WIyWlLk6GJQsqaUBKTNV-1">
          <mxGeometry x="-555" y="440" width="50" height="50" as="geometry" />
        </mxCell>
        <mxCell id="Eacr9_k-0uvhscIPPzIO-48" value="" style="ellipse;whiteSpace=wrap;html=1;aspect=fixed;fillColor=none;" parent="WIyWlLk6GJQsqaUBKTNV-1" vertex="1">
          <mxGeometry x="48.74000000000001" y="1560" width="42.5" height="42.5" as="geometry" />
        </mxCell>
        <mxCell id="x8EZYoVtBb2SgE4D5zJI-7" value="" style="ellipse;whiteSpace=wrap;html=1;aspect=fixed;fillColor=#000000;" vertex="1" parent="WIyWlLk6GJQsqaUBKTNV-1">
          <mxGeometry x="60" y="1571.25" width="20" height="20" as="geometry" />
        </mxCell>
      </root>
    </mxGraphModel>
  </diagram>
</mxfile>
